<svg width="40" height="40" viewBox="0 0 40 40" fill="none" xmlns="http://www.w3.org/2000/svg">
<path d="M32.2689 30C33.5122 30.7601 34.1668 31.6223 34.1668 32.5C34.1668 33.3777 33.5122 34.2399 32.2689 35C31.0255 35.7601 29.2371 36.3913 27.0835 36.8301C24.9299 37.269 22.4869 37.5 20.0002 37.5C17.5134 37.5 15.0704 37.269 12.9168 36.8301C10.7632 36.3913 8.97486 35.7601 7.73147 35C6.48809 34.2399 5.8335 33.3777 5.8335 32.5C5.8335 31.6223 6.48808 30.7601 7.73147 30" stroke="#121212" stroke-linecap="round"/>
<path d="M31.1668 16.6667C31.1668 20.8259 28.9608 24.1519 26.449 26.5907C23.9388 29.0279 21.1722 30.5293 20.1732 31.0286C20.0591 31.0856 19.9412 31.0856 19.8271 31.0286L19.6036 31.4759L19.8271 31.0286C18.8281 30.5293 16.0615 29.0279 13.5513 26.5907C11.0395 24.1519 8.8335 20.8259 8.8335 16.6667C8.8335 10.4995 13.833 5.5 20.0002 5.5C26.1673 5.5 31.1668 10.4995 31.1668 16.6667Z" stroke="#121212"/>
<circle cx="20" cy="16.6667" r="4.5" fill="white" stroke="#121212"/>
</svg>
