<svg width="40" height="40" viewBox="0 0 40 40" fill="none" xmlns="http://www.w3.org/2000/svg">
<path d="M10 21.6667V8.83334C10 8.59764 10 8.47979 10.0732 8.40657C10.1464 8.33334 10.2643 8.33334 10.5 8.33334H17.7153C18.016 8.33334 18.1664 8.33334 18.2872 8.40802C18.408 8.48269 18.4752 8.61717 18.6097 8.88613L19.7236 11.1139C19.8581 11.3828 19.9253 11.5173 20.0462 11.592C20.167 11.6667 20.3173 11.6667 20.618 11.6667H29.5C29.7357 11.6667 29.8536 11.6667 29.9268 11.7399C30 11.8131 30 11.931 30 12.1667V24.5C30 24.7357 30 24.8536 29.9268 24.9268C29.8536 25 29.7357 25 29.5 25H20.618C20.3173 25 20.167 25 20.0462 24.9253C19.9253 24.8507 19.8581 24.7162 19.7236 24.4472L18.6097 22.2195C18.4752 21.9505 18.408 21.816 18.2872 21.7414C18.1664 21.6667 18.016 21.6667 17.7153 21.6667H10ZM10 21.6667V31.6667" stroke="#222222" stroke-linecap="round"/>
</svg>
