<svg width="40" height="40" viewBox="0 0 40 40" fill="none" xmlns="http://www.w3.org/2000/svg">
<path d="M9.07207 36.1719L10.12 35.2895H8.75C4.11718 35.2895 0.5 32.131 0.5 28.4211V8.42105C0.5 6.7057 1.07666 5.38346 2.07877 4.34368C3.09331 3.291 4.56952 2.50239 6.40057 1.92416C10.07 0.76538 15.0009 0.5 20 0.5C25.5288 0.5 30.4544 0.766133 33.9882 1.92257C35.7489 2.49872 37.1232 3.28342 38.0557 4.32943C38.9783 5.36438 39.5 6.69001 39.5 8.42105V28.4211C39.5 32.131 35.8828 35.2895 31.25 35.2895H29.88L30.9279 36.1719L34.5 39.18V39.5H30.1825L25.3221 35.407L25.1825 35.2895H25H15.575H15.3925L15.2529 35.407L10.3925 39.5H5.5V39.18L9.07207 36.1719ZM17.5 17.3421H18V16.8421V8.42105V7.92105H17.5H5H4.5V8.42105V16.8421V17.3421H5H17.5ZM22 16.8421V17.3421H22.5H35H35.5V16.8421V8.42105V7.92105H35H22.5H22V8.42105V16.8421ZM4.5 28.4211C4.5 30.5216 6.48282 32.0789 8.75 32.0789C11.0172 32.0789 13 30.5216 13 28.4211C13 26.3205 11.0172 24.7632 8.75 24.7632C6.48282 24.7632 4.5 26.3205 4.5 28.4211ZM27 28.4211C27 30.5216 28.9828 32.0789 31.25 32.0789C33.5172 32.0789 35.5 30.5216 35.5 28.4211C35.5 26.3205 33.5172 24.7632 31.25 24.7632C28.9828 24.7632 27 26.3205 27 28.4211Z" stroke="#121212"/>
</svg>
